<?xml version="1.0" encoding="UTF-8"?>
<svg xmlns="http://www.w3.org/2000/svg" viewBox="0 0 842.89 596.28">
  <defs>
    <style>
      .cls-1 {
        fill: #5b9bd4;
        stroke: #1d1d1b;
      }

      .cls-1, .cls-2 {
        stroke-miterlimit: 10;
      }

      .cls-3 {
        stroke-width: 0px;
      }

      .cls-3, .cls-2 {
        fill: #fff;
      }

      .cls-2 {
        stroke: #fff;
      }
    </style>
  </defs>
  <g id="Calque_1" data-name="Calque 1">
    <rect class="cls-1" x=".5" y=".5" width="841.89" height="595.28"/>
    <path class="cls-3" d="m93.87,112.01c1.66.64,3.42,1.1,4.96,1.94,3.36,1.83,5.4,4.81,6.58,8.39.08.23-.04.63-.21.81-2.62,2.91-5.26,5.8-7.9,8.69-3.33,3.66-6.65,7.32-9.98,10.98-3.4,3.73-6.8,7.47-10.19,11.2-3.48,3.83-6.96,7.66-10.45,11.49-2.88,3.16-5.77,6.31-8.65,9.47-3.38,3.71-6.75,7.43-10.13,11.15-3.08,3.39-6.17,6.78-9.27,10.16-.18.2-.45.34-.7.46-5.16,2.37-10.31,4.74-15.48,7.08-.42.19-.92.19-1.57.32.12-.68.13-1.19.3-1.65,2.04-5.67,4.07-11.35,6.21-16.99.33-.88,1.19-1.58,1.85-2.32,4.46-4.99,8.94-9.97,13.41-14.95,3.37-3.75,6.76-7.49,10.14-11.25,3.85-4.29,7.69-8.6,11.54-12.89,3.37-3.76,6.76-7.49,10.14-11.25,4.3-4.79,8.59-9.59,12.89-14.39,1.92-2.15,3.83-4.31,5.74-6.46.26,0,.52,0,.77,0Zm4.5,3.45c-1.5,1.66-2.95,3.27-4.4,4.87-2.45,2.72-4.9,5.43-7.34,8.15-2.58,2.87-5.16,5.75-7.74,8.62-2.48,2.76-4.97,5.51-7.45,8.26-2.58,2.87-5.16,5.75-7.74,8.62-2.53,2.81-5.08,5.62-7.61,8.43-2.96,3.29-5.91,6.6-8.87,9.89-3.11,3.47-6.23,6.93-9.35,10.4-.36.4-.86.76-1.02,1.24-.47,1.44-.79,2.93-1.19,4.47,1.72-.54,3.35-1.05,4.98-1.57.16-.05.33-.16.44-.28,2.89-3.18,5.78-6.37,8.67-9.56,3.18-3.51,6.35-7.04,9.53-10.55,2.7-2.98,5.41-5.94,8.1-8.92,3.64-4.03,7.28-8.07,10.92-12.1,3.25-3.59,6.5-7.17,9.76-10.76,2.73-3.01,5.47-6.03,8.2-9.04,1.95-2.16,3.89-4.32,5.87-6.51-.97-1.52-2.24-2.68-3.75-3.66ZM31.7,182.84c1.44-.22,2.71-.4,3.97-.61.28-.05.62-.17.81-.37,3.14-3.45,6.26-6.91,9.38-10.37,3.05-3.39,6.09-6.78,9.14-10.17,2.53-2.81,5.08-5.62,7.61-8.43,2.98-3.31,5.95-6.64,8.93-9.95,2.98-3.31,5.98-6.61,8.96-9.92,3.1-3.44,6.2-6.89,9.3-10.34,2.37-2.64,4.75-5.29,7.16-7.97-.5-.2-.96-.39-1.43-.56-1.63-.61-1.63-.6-2.76.72-.39.45-.81.87-1.2,1.31-2.51,2.8-5.02,5.6-7.53,8.4-2.44,2.72-4.89,5.44-7.34,8.16-2.51,2.8-5.02,5.6-7.53,8.4-2.91,3.24-5.82,6.47-8.73,9.71-2.49,2.78-4.98,5.57-7.48,8.34-2.91,3.24-5.83,6.47-8.74,9.7-3.01,3.35-6.02,6.71-9.03,10.06-1.13,1.26-2.26,2.53-3.49,3.9Zm9.53,8.25c.94-1.03,1.79-1.95,2.63-2.88,2.86-3.14,5.73-6.28,8.59-9.43,2.9-3.18,5.79-6.36,8.69-9.54,2.86-3.14,5.73-6.28,8.6-9.42,2.91-3.2,5.82-6.4,8.74-9.6,2.79-3.07,5.59-6.13,8.38-9.19,2.93-3.22,5.85-6.45,8.78-9.67,2.63-2.9,5.28-5.79,7.91-8.69.1-.11.19-.32.15-.44-.19-.55-.43-1.08-.69-1.71-1.96,2.16-3.85,4.23-5.73,6.3-2.7,2.98-5.38,5.97-8.08,8.95-2.72,3-5.45,5.98-8.16,8.98-3.16,3.49-6.31,7-9.47,10.5-2.71,3-5.45,5.98-8.16,8.98-3.65,4.03-7.28,8.08-10.92,12.11-3.2,3.53-6.41,7.05-9.62,10.58-.33.37-.82.69-.96,1.12-.31.94-.44,1.94-.68,3.05Zm-7.81-.3c.61-2.34,1.19-4.57,1.79-6.9-1.43.24-2.76.47-4.1.67-1.12.16-1.99.87-2.34,1.78-1.46,3.73-2.76,7.52-4.11,11.29-.2.56,1.46,2.58,2.06,2.51.12-.01.24-.09.36-.14,3.12-1.43,6.23-2.87,9.35-4.29,1.55-.7,2.25-2.15,2.9-3.53.49-1.02.53-2.25.8-3.5-2.24.71-4.4,1.39-6.7,2.11Zm-10.22,10.96c.68-.33,1.19-.57,1.62-.78-.31-.35-.61-.68-.95-1.06-.21.57-.41,1.11-.68,1.84Z"/>
    <g>
      <path class="cls-3" d="m820.89,152.72c-.8,1.55-2.07,2.06-3.8,2.02-3.5-.09-7.01.04-10.51-.04-5.82-.14-11.37.95-16.83,2.94-16.67,6.07-33.38,12.04-50.08,18.05-2.44.88-3.71.26-4.6-2.19-4.13-11.48-8.26-22.96-12.38-34.45-.61-1.71-.37-2.7.77-3.07,1.06-.35,1.83.26,2.43,1.94,4,11.14,8,22.28,12.01,33.42.13.37.28.74.46,1.23,11.94-4.29,23.78-8.55,35.62-12.81-.02-.08-.03-.15-.05-.23-1.64.27-3.28.54-4.92.83-8.3,1.43-16.59,2.86-24.89,4.28-1.65.28-3.03-.67-3.32-2.33-.98-5.5-1.92-11.01-2.87-16.52-1.37-7.97-2.73-15.95-4.1-23.92-1.29-7.5-2.57-15.01-3.86-22.51-.48-2.78-.95-5.56-1.46-8.53-5.86,2.01-11.61,3.98-17.41,5.97,1.99,5.54,3.94,10.97,5.89,16.4,1.94,5.4,3.91,10.78,5.8,16.2.22.64.21,1.6-.12,2.14-.72,1.17-2.36.76-2.89-.67-1.17-3.17-2.31-6.36-3.45-9.54-2.78-7.75-5.56-15.5-8.34-23.25-.85-2.36-.25-3.64,2.09-4.45,5.69-1.98,11.39-3.94,17.09-5.91.24-.08.47-.19.75-.3-.3-1.81-.59-3.58-.87-5.35-.29-1.86.64-3.14,2.51-3.47,6.02-1.04,12.03-2.07,18.05-3.1.14-.02.27-.07.52-.12,0-2.55,0-5.09,0-7.62,0-2.99.96-3.94,3.99-3.94,17.15,0,34.29.01,51.44-.02,1.39,0,2.44.43,3.44,1.4,3.97,3.85,8,7.64,12,11.46.66.63,1.27,1.3,1.91,1.94v74.13Zm-3.37-1.4v-69.94c-.52,0-.99,0-1.46,0-3.43-.03-6.86.03-10.28-.13-2.45-.12-3.68-1.59-3.72-4.06-.04-2.47-.02-4.94-.03-7.41,0-.8,0-1.6,0-2.47h-50.53c0,.53,0,1,0,1.47,0,13.79,0,27.58,0,41.37,0,.44,0,.89-.04,1.33-.09.97-.7,1.48-1.6,1.51-.92.03-1.51-.53-1.7-1.43-.08-.35-.04-.73-.04-1.1,0-10.1,0-20.21,0-30.31v-1.32c-6.01,1.04-11.86,2.04-17.71,3.05,4.55,26.53,9.06,52.87,13.6,79.34,12.36-2.12,24.64-4.23,36.91-6.33,0-.06-.01-.11-.02-.17h-1.21c-9.33,0-18.66,0-27.98,0-2.55,0-3.59-1.05-3.59-3.63,0-10.36,0-20.72,0-31.09,0-1.82.57-2.69,1.75-2.65,1.13.03,1.63.85,1.63,2.64,0,9.99,0,19.99,0,29.98,0,.43,0,.87,0,1.36h66.02Zm-2.07-73.39c-3.43-3.27-6.64-6.33-10.04-9.58,0,3.15-.02,6.03.03,8.92,0,.22.44.62.68.62,3.01.04,6.02.03,9.33.03Z"/>
      <path class="cls-3" d="m784.94,87.92c7.37,0,14.74,0,22.1,0,.22,0,.44,0,.66,0,1.74,0,2.57.57,2.55,1.74-.02,1.15-.84,1.69-2.61,1.69-5.67,0-11.35,0-17.02,0-9.47,0-18.94,0-28.4,0-.44,0-.89,0-1.32-.07-.92-.16-1.46-.77-1.45-1.68.01-.91.6-1.48,1.5-1.65.36-.07.73-.04,1.1-.04,7.63,0,15.25,0,22.88,0Z"/>
      <path class="cls-3" d="m784.7,138.52c-7.51,0-15.03,0-22.54,0-.33,0-.67.02-.99-.01-.99-.1-1.72-.82-1.73-1.69,0-.87.7-1.59,1.7-1.7.29-.03.59-.02.88-.02,15.21,0,30.43,0,45.64,0,.44,0,.99-.09,1.29.13.51.37,1.09.9,1.25,1.47.22.77-.3,1.43-1.1,1.66-.45.13-.94.15-1.41.16-7.66,0-15.32,0-22.99,0Z"/>
      <path class="cls-3" d="m784.82,99.75c7.63,0,15.27,0,22.9,0,1.72,0,2.5.5,2.53,1.62.04,1.17-.8,1.76-2.52,1.76-15.27,0-30.53,0-45.8,0-.33,0-.67.03-.99-.03-.91-.17-1.44-.75-1.5-1.67-.06-.85.66-1.56,1.6-1.65.37-.04.74-.03,1.1-.03,7.56,0,15.12,0,22.68,0Z"/>
      <path class="cls-3" d="m784.93,114.87c-7.82,0-15.63,0-23.45,0-1.47,0-2.42-.96-1.91-2.07.24-.53.95-.86,1.49-1.23.15-.1.43-.02.65-.02,15.41,0,30.83,0,46.24,0,.29,0,.6-.04.88.02.92.18,1.44.76,1.41,1.7-.03.88-.54,1.43-1.41,1.58-.32.06-.66.02-.99.02-7.63,0-15.27,0-22.9,0Z"/>
      <path class="cls-3" d="m784.83,126.68c-7.63,0-15.27,0-22.9,0-1.66,0-2.5-.57-2.5-1.67,0-1.11.87-1.71,2.49-1.71,15.3,0,30.61,0,45.91,0,.37,0,.75-.03,1.1.07.88.25,1.4.85,1.31,1.79-.09.87-.62,1.4-1.51,1.49-.37.04-.74.03-1.1.03-7.6,0-15.19,0-22.79,0Z"/>
    </g>
    <g>
      <path class="cls-3" d="m85.51,419.79c.83.54,1.16,1.28,1.11,2.29-.08,1.5-.02,3.01.18,4.59.54-.79,1.07-1.58,1.62-2.36.8-1.14,1.61-1.37,2.78-.69,9.71,5.7,19.42,11.41,29.13,17.13,1.34.79,1.46,1.73.48,3.19-6.7,9.91-13.4,19.81-20.1,29.72-.2.3-.39.6-.64.96,2.04,1.54,3.51,3.46,4.17,5.94.83,3.13.33,6.04-1.5,8.69-3.96,5.73-7.93,11.44-11.93,17.13-.53.75-.74,1.49-.73,2.4.03,7.04.02,14.07.02,21.11,0,.39,0,.79,0,1.26h-3.43c-.02-.36-.05-.71-.05-1.06,0-7.55-.02-15.09.03-22.64,0-.74.27-1.58.69-2.19,4.12-6.01,8.3-11.97,12.45-17.96,2.22-3.2,1.59-7.36-1.59-9.64-4.24-3.04-8.57-5.96-12.86-8.93-.11-.08-.25-.12-.68-.04.4,1.2.68,2.46,1.22,3.6,1.32,2.81,3.51,4.85,6.11,6.47,1.96,1.21,2.11,1.97.66,3.78-2.03,2.55-4.09,5.09-6.11,7.65-.54.68-1.16.98-2.04,1-3.42.07-6.8.48-9.95,1.93-5.12,2.35-7.84,6.47-8.62,11.94-.18,1.25-.21,2.53-.21,3.79-.02,7.33-.01,14.66-.02,21.98,0,.07-.02.14-.04.3h-3.43v-1.24c0-11.03-.01-22.06.01-33.08,0-2.07-.53-3.91-1.82-5.55-1.36-1.74-2.66-3.52-4.01-5.32-1.21.51-2.37,1-3.54,1.48-1.43.59-2.21.28-2.88-1.14-8.01-17.14-16.02-34.29-24.02-51.43-.69-1.48-.33-2.33,1.25-2.96,7.86-3.15,15.71-6.3,23.58-9.43.61-.24.98-.47,1.06-1.25.05-.5.66-.95,1.01-1.43,10.89,0,21.77,0,32.66,0Zm11.63,52.83c6.72-9.93,13.36-19.75,20.04-29.62-8.92-5.25-17.72-10.42-26.56-15.62-9.22,13.56-18.41,27.07-27.66,40.68,8.09,5.25,16.12,10.47,24.19,15.71.71-.89,1.35-1.69,1.99-2.5-.17.12-.34.23-.5.35-1.39-1.62-2.85-3.18-4.16-4.87-2.71-3.48-3.84-7.42-3.09-11.82.24-1.44,1.51-2.02,2.77-1.28.25.15.48.33.72.49,4.05,2.8,8.1,5.6,12.28,8.49Zm-29.26,2.9c-.43-.3-.62-.45-.81-.58-2.31-1.5-4.62-3-6.92-4.5-1.69-1.1-1.83-1.85-.68-3.55,2.22-3.26,4.45-6.52,6.67-9.79.97-1.43,1.93-2.86,2.92-4.32-1.07-1.06-2.08-2.05-3.08-3.05-1.03-1.02-2.06-2.04-3.08-3.08-1.11-1.13-1.13-1.95-.02-3.07,1.76-1.78,3.54-3.54,5.31-5.31,1.52-1.52,2.15-1.51,3.7.04,1.38,1.37,2.75,2.75,4.17,4.18,1.51-2.21,2.82-4.45,4.44-6.43,2.11-2.58,3.08-5.37,2.65-8.69-.14-1.07-.02-2.17-.03-3.26,0-.27-.05-.55-.08-.79h-27.73v52.19c3.82,0,7.59,0,11.35,0,.31,0,.62,0,1.22,0Zm-4.52,3.7c-.02-.07-.03-.14-.05-.22-.96,0-1.93.07-2.88-.01-2.71-.24-5.48.61-8.14-.47-1.13-2.65-.47-5.42-.48-8.12-.08-14.36-.04-28.72-.04-43.09v-1.43c-7.39,2.95-14.66,5.86-21.99,8.79,7.64,16.36,15.25,32.67,22.88,49.01,3.68-1.54,7.19-3,10.71-4.47Zm-3.54,5.32c2.32,3.61,5.83,6.46,5.91,11.31.44-.53.71-.87.99-1.19,4.28-4.93,9.97-6.58,16.2-6.9.98-.05,1.54-.39,1.94-1.27-3.75-2.43-7.48-4.87-11.23-7.26-.24-.15-.7-.13-.98-.02-4.25,1.74-8.48,3.52-12.82,5.32Zm10.31-42.84c-1.21,1.21-2.4,2.4-3.48,3.47,1.06,1.11,2.2,2.3,3.19,3.33,1.21-1.18,2.41-2.35,3.6-3.51-1.09-1.09-2.24-2.23-3.31-3.29Z"/>
      <path class="cls-3" d="m131.89,473.12c-1.26.81-2.45,1.75-3.79,2.41-1.63.8-2.85,1.87-3.55,3.57-.35.86-.9,1.65-1.34,2.48-.39.75-.93,1.48-1.8,1.27-.64-.16-1.21-.75-1.71-1.26-.34-.35-.56-.85-.74-1.32-1.02-2.64-2.87-4.42-5.5-5.43-.53-.21-1.03-.53-1.52-.83-1.32-.84-1.33-2.35.02-3.15,1.43-.84,2.93-1.58,4.36-2.42.44-.26.85-.67,1.11-1.11.81-1.37,1.52-2.79,2.31-4.18.9-1.6,2.45-1.59,3.39-.01.11.19.23.37.31.57,1.22,3.3,3.55,5.48,6.79,6.79.63.26,1.11.86,1.66,1.31v1.31Zm-10.36-5.72c-.77,1.27-1.21,2.4-2,3.19-.78.78-1.91,1.21-3.12,1.93,2.5.88,4.13,2.45,4.96,4.97.73-1.24,1.16-2.38,1.95-3.16.81-.8,1.97-1.25,3.22-2-2.61-.79-4.12-2.43-5.01-4.93Z"/>
      <path class="cls-3" d="m39.15,506.85c-.26-.23-.88-.57-1.2-1.09-.83-1.32-1.48-2.74-2.29-4.07-.34-.55-.86-1.05-1.41-1.39-1.26-.78-2.59-1.45-3.9-2.15-.72-.38-1.38-.92-1.17-1.75.15-.62.61-1.43,1.14-1.64,3.61-1.46,6.15-3.9,7.53-7.56.28-.75.86-1.24,1.75-1.23.89.01,1.44.53,1.72,1.27,1.39,3.6,3.87,6.08,7.47,7.45.75.29,1.24.87,1.23,1.75-.01.88-.52,1.43-1.27,1.72-3.54,1.39-6.05,3.78-7.4,7.37-.3.79-.86,1.34-2.2,1.32Zm.41-5.57c.97-2.35,2.54-3.96,4.96-4.92-2.56-.77-3.93-2.59-4.98-4.86-.87,2.45-2.55,3.95-4.85,4.94,2.4.9,3.96,2.45,4.88,4.84Z"/>
      <path class="cls-3" d="m26.54,465.07c3.37,0,6.06,2.69,6.06,6.07,0,3.44-2.69,6.12-6.13,6.12-3.37,0-6.07-2.7-6.06-6.07,0-3.45,2.67-6.12,6.12-6.12Zm.06,3.49c-1.33-.06-2.59,1.09-2.69,2.46-.1,1.36,1.11,2.69,2.51,2.74,1.38.06,2.66-1.17,2.69-2.57.03-1.33-1.15-2.57-2.51-2.63Z"/>
      <path class="cls-3" d="m114.47,504.3c0,3.36-2.72,6.05-6.09,6.05-3.44,0-6.1-2.68-6.1-6.14,0-3.36,2.7-6.04,6.09-6.04s6.11,2.69,6.1,6.14Zm-3.49-.06c0-1.34-1.2-2.56-2.56-2.59-1.38-.03-2.65,1.23-2.65,2.61,0,1.35,1.21,2.57,2.56,2.59,1.38.02,2.65-1.22,2.65-2.61Z"/>
      <path class="cls-3" d="m111.03,428.41v-3.34h3.38v3.34h-3.38Z"/>
      <path class="cls-3" d="m27.42,454.53v-3.33h3.38v3.33h-3.38Z"/>
      <path class="cls-3" d="m51.81,510.29v-3.36h3.38v3.36h-3.38Z"/>
      <path class="cls-3" d="m90.95,461.57c-1.3,0-2.61.01-3.91,0-1.46-.02-2.15-.68-2.16-2.12-.02-2.68-.02-5.36,0-8.04,0-1.42.63-2.06,2.06-2.08,2.72-.02,5.44-.02,8.15,0,1.38.01,2.01.61,2.03,1.98.03,2.75.03,5.51,0,8.26-.02,1.35-.68,1.98-2.03,2-1.38.02-2.75,0-4.13,0Zm-2.53-8.67c0,1.58-.02,3.05.02,4.52,0,.2.28.56.45.57,1.54.04,3.08.03,4.62.03v-5.11h-5.09Z"/>
      <path class="cls-3" d="m88.34,437.96c0-.8-.01-1.59,0-2.39.03-1.18.64-1.83,1.79-1.85,1.7-.02,3.4-.02,5.11,0,1.16.02,1.78.66,1.8,1.84.02,1.67.02,3.33,0,5-.02,1.22-.66,1.84-1.9,1.85-1.63.02-3.26.02-4.89,0-1.29-.01-1.89-.64-1.91-1.96-.01-.83,0-1.67,0-2.5Zm3.5.89h1.65v-1.57h-1.65v1.57Z"/>
      <path class="cls-3" d="m68.03,430.02c-.27.49-.43.99-.76,1.33-1.14,1.21-2.32,2.39-3.53,3.54-.88.84-1.79.81-2.68-.06-1.17-1.13-2.33-2.28-3.46-3.46-.86-.89-.87-1.8-.02-2.68,1.15-1.2,2.33-2.38,3.54-3.53.84-.81,1.76-.82,2.61-.02,1.23,1.17,2.44,2.38,3.61,3.62.3.32.44.79.7,1.27Zm-4.52.14c-.41-.49-.74-.88-1.02-1.23-.46.38-.83.7-1.06.89.35.53.64.97.9,1.35.52-.44.89-.76,1.19-1.01Z"/>
      <path class="cls-3" d="m36.09,439.71c0-.8-.01-1.59,0-2.39.03-1.18.64-1.84,1.79-1.85,1.7-.03,3.4-.02,5.11,0,1.16.02,1.79.66,1.8,1.84.02,1.67.02,3.33,0,5-.01,1.22-.66,1.84-1.9,1.86-1.63.02-3.26.02-4.89,0-1.29-.01-1.89-.64-1.91-1.95-.01-.83,0-1.67,0-2.5Zm3.5.91h1.65v-1.59h-1.65v1.59Z"/>
    </g>
    <g>
      <path class="cls-3" d="m664.64,453.16c3.06.75,5.2,2.81,7.32,4.98,4.3,4.39,8.69,8.69,13.01,13.06.66.67,1.33.97,2.29.96,16.18-.03,32.36,0,48.55-.04,4.32-.01,7.94,1.37,10.67,4.78,1.75,2.18,2.7,4.69,2.7,7.51,0,20.49.04,40.98,0,61.47-.01,7.14-5.51,12.59-12.66,12.62-10.2.04-20.4.01-30.61.01-.49,0-.99,0-1.55,0v7.98c4.6.34,8.17,2.35,10.53,6.3,1.12,1.86,1.7,3.89,1.68,6.08-.01,1.76-.93,2.73-2.69,2.73-4.43.01-8.86,0-13.3,0-10.2,0-20.4,0-30.61,0-2.25,0-3.13-.89-3.09-3.1.09-6.03,5.27-11.44,11.42-11.94.24-.02.49-.04.8-.06v-8.01c-.54,0-1.03,0-1.52,0-10.12,0-20.24.01-30.36,0-6.64-.01-11.65-4.21-12.85-10.71-.1-.57-.11-1.16-.11-1.75,0-7.23,0-14.47,0-21.7,0-1.86.92-2.93,2.49-2.94,1.58,0,2.52,1.07,2.52,2.91,0,3.51,0,7.02,0,10.54,0,.45,0,.91,0,1.44h104.88c0-.53,0-.98,0-1.43,0-16.47,0-32.95,0-49.42,0-5.12-3.08-8.21-8.16-8.21-14.47,0-28.93,0-43.4,0h-1.45c.37.43.58.7.83.95,5.38,5.38,10.78,10.74,16.12,16.17.76.78,1.54.46,2.32.43,5.29-.22,9.72,1.6,13.32,5.48,3.63,3.91,4.25,8.63,3.77,13.67-.18,1.87-.32,3.74-.4,5.62-.11,2.45.69,4.6,2.41,6.37.81.83,1.12,1.78.72,2.86-.42,1.14-1.35,1.55-2.54,1.68-5.3.57-10.58.67-15.82-.53-5.12-1.17-9.49-3.65-12.99-7.56-3.24-3.62-4.46-7.93-4.12-12.74.03-.46-.15-1.07-.47-1.39-10.03-10.08-20.09-20.12-30.13-30.19-.57-.57-1.13-.84-1.96-.84-5.06.04-10.12,0-15.18.02-4.42.01-7.68,3.21-7.71,7.66-.04,5.44-.02,10.87,0,16.31,0,1.12-.45,1.94-1.46,2.41-.96.45-1.97.38-2.66-.39-.48-.54-.85-1.38-.86-2.09-.07-5.64-.07-11.29-.03-16.93.05-6.15,5.34-11.69,11.47-11.95,3.59-.15,7.19-.07,10.78-.09.44,0,.88,0,1.32,0,.06-.11.13-.23.19-.34-.58-.52-1.16-1.04-1.73-1.57-6.14-5.79-3.01-15.33,4.48-16.87.11-.02.21-.13.31-.2,1.17,0,2.34,0,3.51,0Zm79.63,88.38h-105.1c.14,2.17.06,4.28.46,6.3.53,2.65,3.02,5.63,8.15,5.62,29.3-.05,58.6-.03,87.9-.03.63,0,1.25-.04,1.88-.11,3.18-.35,5.83-2.66,6.36-5.83.32-1.91.24-3.89.35-5.94Zm-52.98-56.88c-2.89-2.88-5.82-5.79-8.74-8.71-5.41-5.4-10.8-10.82-16.22-16.21-2.12-2.11-5.07-2.06-6.98.05-1.78,1.97-1.62,4.65.45,6.72,8.06,8.07,16.12,16.13,24.19,24.19.23.23.48.44.64.58,2.21-2.2,4.36-4.34,6.66-6.62Zm31.2,24.35c-.32.23-.47.3-.57.41-2.89,2.98-6.42,4.43-10.56,4.76-3.6.28-6.28,2.2-8.05,5.48,5.59,5.45,12.45,6.35,19.8,6.02-.27-.96-.56-1.82-.75-2.71-.74-3.45-.11-6.89.12-10.34.08-1.14.01-2.29.01-3.61Zm-11.53,67.54c-.75-2.76-3.51-4.91-6.69-4.94-8.35-.07-16.7-.07-25.05,0-3.17.03-5.96,2.21-6.67,4.94h38.41Zm8.91-72.96c-4.16-4.46-10.8-5.01-15.53-1.42-4.47,3.38-5.46,9.63-3.85,12.47,2.92-3.38,6.56-5.25,11.06-5.58,3.71-.27,6.5-2.12,8.32-5.47Zm-35.58,62.84h14.88v-7.85h-14.88v7.85Zm11.8-63.72c2.23-2.22,4.4-4.39,6.38-6.37-2.5-2.49-5.08-5.07-7.44-7.42-2.05,2.05-4.21,4.22-6.36,6.37,2.4,2.41,4.94,4.95,7.41,7.42Z"/>
      <path class="cls-3" d="m639.29,512.56c.03,1.44-1.05,2.55-2.48,2.57-1.44.01-2.53-1.07-2.53-2.51,0-1.38,1.04-2.46,2.41-2.5,1.44-.04,2.57,1.02,2.6,2.45Z"/>
      <path class="cls-3" d="m694.24,547.47c-.02,1.41-1.19,2.55-2.57,2.51-1.37-.05-2.49-1.26-2.45-2.65.05-1.36,1.14-2.4,2.52-2.4,1.45,0,2.51,1.09,2.49,2.54Z"/>
    </g>
    <g>
      <path class="cls-3" d="m664.64,453.16c3.06.75,5.2,2.81,7.32,4.98,4.3,4.39,8.69,8.69,13.01,13.06.66.67,1.33.97,2.29.96,16.18-.03,32.36,0,48.55-.04,4.32-.01,7.94,1.37,10.67,4.78,1.75,2.18,2.7,4.69,2.7,7.51,0,20.49.04,40.98,0,61.47-.01,7.14-5.51,12.59-12.66,12.62-10.2.04-20.4.01-30.61.01-.49,0-.99,0-1.55,0v7.98c4.6.34,8.17,2.35,10.53,6.3,1.12,1.86,1.7,3.89,1.68,6.08-.01,1.76-.93,2.73-2.69,2.73-4.43.01-8.86,0-13.3,0-10.2,0-20.4,0-30.61,0-2.25,0-3.13-.89-3.09-3.1.09-6.03,5.27-11.44,11.42-11.94.24-.02.49-.04.8-.06v-8.01c-.54,0-1.03,0-1.52,0-10.12,0-20.24.01-30.36,0-6.64-.01-11.65-4.21-12.85-10.71-.1-.57-.11-1.16-.11-1.75,0-7.23,0-14.47,0-21.7,0-1.86.92-2.93,2.49-2.94,1.58,0,2.52,1.07,2.52,2.91,0,3.51,0,7.02,0,10.54,0,.45,0,.91,0,1.44h104.88c0-.53,0-.98,0-1.43,0-16.47,0-32.95,0-49.42,0-5.12-3.08-8.21-8.16-8.21-14.47,0-28.93,0-43.4,0h-1.45c.37.43.58.7.83.95,5.38,5.38,10.78,10.74,16.12,16.17.76.78,1.54.46,2.32.43,5.29-.22,9.72,1.6,13.32,5.48,3.63,3.91,4.25,8.63,3.77,13.67-.18,1.87-.32,3.74-.4,5.62-.11,2.45.69,4.6,2.41,6.37.81.83,1.12,1.78.72,2.86-.42,1.14-1.35,1.55-2.54,1.68-5.3.57-10.58.67-15.82-.53-5.12-1.17-9.49-3.65-12.99-7.56-3.24-3.62-4.46-7.93-4.12-12.74.03-.46-.15-1.07-.47-1.39-10.03-10.08-20.09-20.12-30.13-30.19-.57-.57-1.13-.84-1.96-.84-5.06.04-10.12,0-15.18.02-4.42.01-7.68,3.21-7.71,7.66-.04,5.44-.02,10.87,0,16.31,0,1.12-.45,1.94-1.46,2.41-.96.45-1.97.38-2.66-.39-.48-.54-.85-1.38-.86-2.09-.07-5.64-.07-11.29-.03-16.93.05-6.15,5.34-11.69,11.47-11.95,3.59-.15,7.19-.07,10.78-.09.44,0,.88,0,1.32,0,.06-.11.13-.23.19-.34-.58-.52-1.16-1.04-1.73-1.57-6.14-5.79-3.01-15.33,4.48-16.87.11-.02.21-.13.31-.2,1.17,0,2.34,0,3.51,0Zm79.63,88.38h-105.1c.14,2.17.06,4.28.46,6.3.53,2.65,3.02,5.63,8.15,5.62,29.3-.05,58.6-.03,87.9-.03.63,0,1.25-.04,1.88-.11,3.18-.35,5.83-2.66,6.36-5.83.32-1.91.24-3.89.35-5.94Zm-52.98-56.88c-2.89-2.88-5.82-5.79-8.74-8.71-5.41-5.4-10.8-10.82-16.22-16.21-2.12-2.11-5.07-2.06-6.98.05-1.78,1.97-1.62,4.65.45,6.72,8.06,8.07,16.12,16.13,24.19,24.19.23.23.48.44.64.58,2.21-2.2,4.36-4.34,6.66-6.62Zm31.2,24.35c-.32.23-.47.3-.57.41-2.89,2.98-6.42,4.43-10.56,4.76-3.6.28-6.28,2.2-8.05,5.48,5.59,5.45,12.45,6.35,19.8,6.02-.27-.96-.56-1.82-.75-2.71-.74-3.45-.11-6.89.12-10.34.08-1.14.01-2.29.01-3.61Zm-11.53,67.54c-.75-2.76-3.51-4.91-6.69-4.94-8.35-.07-16.7-.07-25.05,0-3.17.03-5.96,2.21-6.67,4.94h38.41Zm8.91-72.96c-4.16-4.46-10.8-5.01-15.53-1.42-4.47,3.38-5.46,9.63-3.85,12.47,2.92-3.38,6.56-5.25,11.06-5.58,3.71-.27,6.5-2.12,8.32-5.47Zm-35.58,62.84h14.88v-7.85h-14.88v7.85Zm11.8-63.72c2.23-2.22,4.4-4.39,6.38-6.37-2.5-2.49-5.08-5.07-7.44-7.42-2.05,2.05-4.21,4.22-6.36,6.37,2.4,2.41,4.94,4.95,7.41,7.42Z"/>
      <path class="cls-3" d="m639.29,512.56c.03,1.44-1.05,2.55-2.48,2.57-1.44.01-2.53-1.07-2.53-2.51,0-1.38,1.04-2.46,2.41-2.5,1.44-.04,2.57,1.02,2.6,2.45Z"/>
      <path class="cls-3" d="m694.24,547.47c-.02,1.41-1.19,2.55-2.57,2.51-1.37-.05-2.49-1.26-2.45-2.65.05-1.36,1.14-2.4,2.52-2.4,1.45,0,2.51,1.09,2.49,2.54Z"/>
    </g>
    <path class="cls-3" d="m807.28,345.72c1.66.64,3.42,1.1,4.96,1.94,3.36,1.83,5.4,4.81,6.58,8.39.08.23-.04.63-.21.81-2.62,2.91-5.26,5.8-7.9,8.69-3.33,3.66-6.65,7.32-9.98,10.98-3.4,3.73-6.8,7.47-10.19,11.2-3.48,3.83-6.96,7.66-10.45,11.49-2.88,3.16-5.77,6.31-8.65,9.47-3.38,3.71-6.75,7.43-10.13,11.15-3.08,3.39-6.17,6.78-9.27,10.16-.18.2-.45.34-.7.46-5.16,2.37-10.31,4.74-15.48,7.08-.42.19-.92.19-1.57.32.12-.68.13-1.19.3-1.65,2.04-5.67,4.07-11.35,6.21-16.99.33-.88,1.19-1.58,1.85-2.32,4.46-4.99,8.94-9.97,13.41-14.95,3.37-3.75,6.76-7.49,10.14-11.25,3.85-4.29,7.69-8.6,11.54-12.89,3.37-3.76,6.76-7.49,10.14-11.25,4.3-4.79,8.59-9.59,12.89-14.39,1.92-2.15,3.83-4.31,5.74-6.46.26,0,.52,0,.77,0Zm4.5,3.45c-1.5,1.66-2.95,3.27-4.4,4.87-2.45,2.72-4.9,5.43-7.34,8.15-2.58,2.87-5.16,5.75-7.74,8.62-2.48,2.76-4.97,5.51-7.45,8.26-2.58,2.87-5.16,5.75-7.74,8.62-2.53,2.81-5.08,5.62-7.61,8.43-2.96,3.29-5.91,6.6-8.87,9.89-3.11,3.47-6.23,6.93-9.35,10.4-.36.4-.86.76-1.02,1.24-.47,1.44-.79,2.93-1.19,4.47,1.72-.54,3.35-1.05,4.98-1.57.16-.05.33-.16.44-.28,2.89-3.18,5.78-6.37,8.67-9.56,3.18-3.51,6.35-7.04,9.53-10.55,2.7-2.98,5.41-5.94,8.1-8.92,3.64-4.03,7.28-8.07,10.92-12.1,3.25-3.59,6.5-7.17,9.76-10.76,2.73-3.01,5.47-6.03,8.2-9.04,1.95-2.16,3.89-4.32,5.87-6.51-.97-1.52-2.24-2.68-3.75-3.66Zm-66.67,67.37c1.44-.22,2.71-.4,3.97-.61.28-.05.62-.17.81-.37,3.14-3.45,6.26-6.91,9.38-10.37,3.05-3.39,6.09-6.78,9.14-10.17,2.53-2.81,5.08-5.62,7.61-8.43,2.98-3.31,5.95-6.64,8.93-9.95,2.98-3.31,5.98-6.61,8.96-9.92,3.1-3.44,6.2-6.89,9.3-10.34,2.37-2.64,4.75-5.29,7.16-7.97-.5-.2-.96-.39-1.43-.56-1.63-.61-1.63-.6-2.76.72-.39.45-.81.87-1.2,1.31-2.51,2.8-5.02,5.6-7.53,8.4-2.44,2.72-4.89,5.44-7.34,8.16-2.51,2.8-5.02,5.6-7.53,8.4-2.91,3.24-5.82,6.47-8.73,9.71-2.49,2.78-4.98,5.57-7.48,8.34-2.91,3.24-5.83,6.47-8.74,9.7-3.01,3.35-6.02,6.71-9.03,10.06-1.13,1.26-2.26,2.53-3.49,3.9Zm9.53,8.25c.94-1.03,1.79-1.95,2.63-2.88,2.86-3.14,5.73-6.28,8.59-9.43,2.9-3.18,5.79-6.36,8.69-9.54,2.86-3.14,5.73-6.28,8.6-9.42,2.91-3.2,5.82-6.4,8.74-9.6,2.79-3.07,5.59-6.13,8.38-9.19,2.93-3.22,5.85-6.45,8.78-9.67,2.63-2.9,5.28-5.79,7.91-8.69.1-.11.19-.32.15-.44-.19-.55-.43-1.08-.69-1.71-1.96,2.16-3.85,4.23-5.73,6.3-2.7,2.98-5.38,5.97-8.08,8.95-2.72,3-5.45,5.98-8.16,8.98-3.16,3.49-6.31,7-9.47,10.5-2.71,3-5.45,5.98-8.16,8.98-3.65,4.03-7.28,8.08-10.92,12.11-3.2,3.53-6.41,7.05-9.62,10.58-.33.37-.82.69-.96,1.12-.31.94-.44,1.94-.68,3.05Zm-7.81-.3c.61-2.34,1.19-4.57,1.79-6.9-1.43.24-2.76.47-4.1.67-1.12.16-1.99.87-2.34,1.78-1.46,3.73-2.76,7.52-4.11,11.29-.2.56,1.46,2.58,2.06,2.51.12-.01.24-.09.36-.14,3.12-1.43,6.23-2.87,9.35-4.29,1.55-.7,2.25-2.15,2.9-3.53.49-1.02.53-2.25.8-3.5-2.24.71-4.4,1.39-6.7,2.11Zm-10.22,10.96c.68-.33,1.19-.57,1.62-.78-.31-.35-.61-.68-.95-1.06-.21.57-.41,1.11-.68,1.84Z"/>
    <g>
      <path class="cls-3" d="m267.7,563.55c-.8,1.55-2.07,2.06-3.8,2.02-3.5-.09-7.01.04-10.51-.04-5.82-.14-11.37.95-16.83,2.94-16.67,6.07-33.38,12.04-50.08,18.05-2.44.88-3.71.26-4.6-2.19-4.13-11.48-8.26-22.96-12.38-34.45-.61-1.71-.37-2.7.77-3.07,1.06-.35,1.83.26,2.43,1.94,4,11.14,8,22.28,12.01,33.42.13.37.28.74.46,1.23,11.94-4.29,23.78-8.55,35.62-12.81-.02-.08-.03-.15-.05-.23-1.64.27-3.28.54-4.92.83-8.3,1.43-16.59,2.86-24.89,4.28-1.65.28-3.03-.67-3.32-2.33-.98-5.5-1.92-11.01-2.87-16.52-1.37-7.97-2.73-15.95-4.1-23.92-1.29-7.5-2.57-15.01-3.86-22.51-.48-2.78-.95-5.56-1.46-8.53-5.86,2.01-11.61,3.98-17.41,5.97,1.99,5.54,3.94,10.97,5.89,16.4,1.94,5.4,3.91,10.78,5.8,16.2.22.64.21,1.6-.12,2.14-.72,1.17-2.36.76-2.89-.67-1.17-3.17-2.31-6.36-3.45-9.54-2.78-7.75-5.56-15.5-8.34-23.25-.85-2.36-.25-3.64,2.09-4.45,5.69-1.98,11.39-3.94,17.09-5.91.24-.08.47-.19.75-.3-.3-1.81-.59-3.58-.87-5.35-.29-1.86.64-3.14,2.51-3.47,6.02-1.04,12.03-2.07,18.05-3.1.14-.02.27-.07.52-.12,0-2.55,0-5.09,0-7.62,0-2.99.96-3.94,3.99-3.94,17.15,0,34.29.01,51.44-.02,1.39,0,2.44.43,3.44,1.4,3.97,3.85,8,7.64,12,11.46.66.63,1.27,1.3,1.91,1.94v74.13Zm-3.37-1.4v-69.94c-.52,0-.99,0-1.46,0-3.43-.03-6.86.03-10.28-.13-2.45-.12-3.68-1.59-3.72-4.06-.04-2.47-.02-4.94-.03-7.41,0-.8,0-1.6,0-2.47h-50.53c0,.53,0,1,0,1.47,0,13.79,0,27.58,0,41.37,0,.44,0,.89-.04,1.33-.09.97-.7,1.48-1.6,1.51-.92.03-1.51-.53-1.7-1.43-.08-.35-.04-.73-.04-1.1,0-10.1,0-20.21,0-30.31v-1.32c-6.01,1.04-11.86,2.04-17.71,3.05,4.55,26.53,9.06,52.87,13.6,79.34,12.36-2.12,24.64-4.23,36.91-6.33,0-.06-.01-.11-.02-.17h-1.21c-9.33,0-18.66,0-27.98,0-2.55,0-3.59-1.05-3.59-3.63,0-10.36,0-20.72,0-31.09,0-1.82.57-2.69,1.75-2.65,1.13.03,1.63.85,1.63,2.64,0,9.99,0,19.99,0,29.98,0,.43,0,.87,0,1.36h66.02Zm-2.07-73.39c-3.43-3.27-6.64-6.33-10.04-9.58,0,3.15-.02,6.03.03,8.92,0,.22.44.62.68.62,3.01.04,6.02.03,9.33.03Z"/>
      <path class="cls-3" d="m231.75,498.75c7.37,0,14.74,0,22.1,0,.22,0,.44,0,.66,0,1.74,0,2.57.57,2.55,1.74-.02,1.15-.84,1.69-2.61,1.69-5.67,0-11.35,0-17.02,0-9.47,0-18.94,0-28.4,0-.44,0-.89,0-1.32-.07-.92-.16-1.46-.77-1.45-1.68.01-.91.6-1.48,1.5-1.65.36-.07.73-.04,1.1-.04,7.63,0,15.25,0,22.88,0Z"/>
      <path class="cls-3" d="m231.51,549.35c-7.51,0-15.03,0-22.54,0-.33,0-.67.02-.99-.01-.99-.1-1.72-.82-1.73-1.69,0-.87.7-1.59,1.7-1.7.29-.03.59-.02.88-.02,15.21,0,30.43,0,45.64,0,.44,0,.99-.09,1.29.13.51.37,1.09.9,1.25,1.47.22.77-.3,1.43-1.1,1.66-.45.13-.94.15-1.41.16-7.66,0-15.32,0-22.99,0Z"/>
      <path class="cls-3" d="m231.63,510.58c7.63,0,15.27,0,22.9,0,1.72,0,2.5.5,2.53,1.62.04,1.17-.8,1.76-2.52,1.76-15.27,0-30.53,0-45.8,0-.33,0-.67.03-.99-.03-.91-.17-1.44-.75-1.5-1.67-.06-.85.66-1.56,1.6-1.65.37-.04.74-.03,1.1-.03,7.56,0,15.12,0,22.68,0Z"/>
      <path class="cls-3" d="m231.74,525.7c-7.82,0-15.63,0-23.45,0-1.47,0-2.42-.96-1.91-2.07.24-.53.95-.86,1.49-1.23.15-.1.43-.02.65-.02,15.41,0,30.83,0,46.24,0,.29,0,.6-.04.88.02.92.18,1.44.76,1.41,1.7-.03.88-.54,1.43-1.41,1.58-.32.06-.66.02-.99.02-7.63,0-15.27,0-22.9,0Z"/>
      <path class="cls-3" d="m231.64,537.51c-7.63,0-15.27,0-22.9,0-1.66,0-2.5-.57-2.5-1.67,0-1.11.87-1.71,2.49-1.71,15.3,0,30.61,0,45.91,0,.37,0,.75-.03,1.1.07.88.25,1.4.85,1.31,1.79-.09.87-.62,1.4-1.51,1.49-.37.04-.74.03-1.1.03-7.6,0-15.19,0-22.79,0Z"/>
    </g>
    <g>
      <path class="cls-3" d="m650.81,8.09c.83.54,1.16,1.28,1.11,2.29-.08,1.5-.02,3.01.18,4.59.54-.79,1.07-1.58,1.62-2.36.8-1.14,1.61-1.37,2.78-.69,9.71,5.7,19.42,11.41,29.13,17.13,1.34.79,1.46,1.73.48,3.19-6.7,9.91-13.4,19.81-20.1,29.72-.2.3-.39.6-.64.96,2.04,1.54,3.51,3.46,4.17,5.94.83,3.13.33,6.04-1.5,8.69-3.96,5.73-7.93,11.44-11.93,17.13-.53.75-.74,1.49-.73,2.4.03,7.04.02,14.07.02,21.11,0,.39,0,.79,0,1.26h-3.43c-.02-.36-.05-.71-.05-1.06,0-7.55-.02-15.09.03-22.64,0-.74.27-1.58.69-2.19,4.12-6.01,8.3-11.97,12.45-17.96,2.22-3.2,1.59-7.36-1.59-9.64-4.24-3.04-8.57-5.96-12.86-8.93-.11-.08-.25-.12-.68-.04.4,1.2.68,2.46,1.22,3.6,1.32,2.81,3.51,4.85,6.11,6.47,1.96,1.21,2.11,1.97.66,3.78-2.03,2.55-4.09,5.09-6.11,7.65-.54.68-1.16.98-2.04,1-3.42.07-6.8.48-9.95,1.93-5.12,2.35-7.84,6.47-8.62,11.94-.18,1.25-.21,2.53-.21,3.79-.02,7.33-.01,14.66-.02,21.98,0,.07-.02.14-.04.3h-3.43v-1.24c0-11.03-.01-22.06.01-33.08,0-2.07-.53-3.91-1.82-5.55-1.36-1.74-2.66-3.52-4.01-5.32-1.21.51-2.37,1-3.54,1.48-1.43.59-2.21.28-2.88-1.14-8.01-17.14-16.02-34.29-24.02-51.43-.69-1.48-.33-2.33,1.25-2.96,7.86-3.15,15.71-6.3,23.58-9.43.61-.24.98-.47,1.06-1.25.05-.5.66-.95,1.01-1.43,10.89,0,21.77,0,32.66,0Zm11.63,52.83c6.72-9.93,13.36-19.75,20.04-29.62-8.92-5.25-17.72-10.42-26.56-15.62-9.22,13.56-18.41,27.07-27.66,40.68,8.09,5.25,16.12,10.47,24.19,15.71.71-.89,1.35-1.69,1.99-2.5-.17.12-.34.23-.5.35-1.39-1.62-2.85-3.18-4.16-4.87-2.71-3.48-3.84-7.42-3.09-11.82.24-1.44,1.51-2.02,2.77-1.28.25.15.48.33.72.49,4.05,2.8,8.1,5.6,12.28,8.49Zm-29.26,2.9c-.43-.3-.62-.45-.81-.58-2.31-1.5-4.62-3-6.92-4.5-1.69-1.1-1.83-1.85-.68-3.55,2.22-3.26,4.45-6.52,6.67-9.79.97-1.43,1.93-2.86,2.92-4.32-1.07-1.06-2.08-2.05-3.08-3.05-1.03-1.02-2.06-2.04-3.08-3.08-1.11-1.13-1.13-1.95-.02-3.07,1.76-1.78,3.54-3.54,5.31-5.31,1.52-1.52,2.15-1.51,3.7.04,1.38,1.37,2.75,2.75,4.17,4.18,1.51-2.21,2.82-4.45,4.44-6.43,2.11-2.58,3.08-5.37,2.65-8.69-.14-1.07-.02-2.17-.03-3.26,0-.27-.05-.55-.08-.79h-27.73v52.19c3.82,0,7.59,0,11.35,0,.31,0,.62,0,1.22,0Zm-4.52,3.7c-.02-.07-.03-.14-.05-.22-.96,0-1.93.07-2.88-.01-2.71-.24-5.48.61-8.14-.47-1.13-2.65-.47-5.42-.48-8.12-.08-14.36-.04-28.72-.04-43.09v-1.43c-7.39,2.95-14.66,5.86-21.99,8.79,7.64,16.36,15.25,32.67,22.88,49.01,3.68-1.54,7.19-3,10.71-4.47Zm-3.54,5.32c2.32,3.61,5.83,6.46,5.91,11.31.44-.53.71-.87.99-1.19,4.28-4.93,9.97-6.58,16.2-6.9.98-.05,1.54-.39,1.94-1.27-3.75-2.43-7.48-4.87-11.23-7.26-.24-.15-.7-.13-.98-.02-4.25,1.74-8.48,3.52-12.82,5.32Zm10.31-42.84c-1.21,1.21-2.4,2.4-3.48,3.47,1.06,1.11,2.2,2.3,3.19,3.33,1.21-1.18,2.41-2.35,3.6-3.51-1.09-1.09-2.24-2.23-3.31-3.29Z"/>
      <path class="cls-3" d="m697.19,61.43c-1.26.81-2.45,1.75-3.79,2.41-1.63.8-2.85,1.87-3.55,3.57-.35.86-.9,1.65-1.34,2.48-.39.75-.93,1.48-1.8,1.27-.64-.16-1.21-.75-1.71-1.26-.34-.35-.56-.85-.74-1.32-1.02-2.64-2.87-4.42-5.5-5.43-.53-.21-1.03-.53-1.52-.83-1.32-.84-1.33-2.35.02-3.15,1.43-.84,2.93-1.58,4.36-2.42.44-.26.85-.67,1.11-1.11.81-1.37,1.52-2.79,2.31-4.18.9-1.6,2.45-1.59,3.39-.01.11.19.23.37.31.57,1.22,3.3,3.55,5.48,6.79,6.79.63.26,1.11.86,1.66,1.31v1.31Zm-10.36-5.72c-.77,1.27-1.21,2.4-2,3.19-.78.78-1.91,1.21-3.12,1.93,2.5.88,4.13,2.45,4.96,4.97.73-1.24,1.16-2.38,1.95-3.16.81-.8,1.97-1.25,3.22-2-2.61-.79-4.12-2.43-5.01-4.93Z"/>
      <path class="cls-3" d="m604.45,95.16c-.26-.23-.88-.57-1.2-1.09-.83-1.32-1.48-2.74-2.29-4.07-.34-.55-.86-1.05-1.41-1.39-1.26-.78-2.59-1.45-3.9-2.15-.72-.38-1.38-.92-1.17-1.75.15-.62.61-1.43,1.14-1.64,3.61-1.46,6.15-3.9,7.53-7.56.28-.75.86-1.24,1.75-1.23.89.01,1.44.53,1.72,1.27,1.39,3.6,3.87,6.08,7.47,7.45.75.29,1.24.87,1.23,1.75-.01.88-.52,1.43-1.27,1.72-3.54,1.39-6.05,3.78-7.4,7.37-.3.79-.86,1.34-2.2,1.32Zm.41-5.57c.97-2.35,2.54-3.96,4.96-4.92-2.56-.77-3.93-2.59-4.98-4.86-.87,2.45-2.55,3.95-4.85,4.94,2.4.9,3.96,2.45,4.88,4.84Z"/>
      <path class="cls-3" d="m591.84,53.37c3.37,0,6.06,2.69,6.06,6.07,0,3.44-2.69,6.12-6.13,6.12-3.37,0-6.07-2.7-6.06-6.07,0-3.45,2.67-6.12,6.12-6.12Zm.06,3.49c-1.33-.06-2.59,1.09-2.69,2.46-.1,1.36,1.11,2.69,2.51,2.74,1.38.06,2.66-1.17,2.69-2.57.03-1.33-1.15-2.57-2.51-2.63Z"/>
      <path class="cls-3" d="m679.77,92.6c0,3.36-2.72,6.05-6.09,6.05-3.44,0-6.1-2.68-6.1-6.14,0-3.36,2.7-6.04,6.09-6.04s6.11,2.69,6.1,6.14Zm-3.49-.06c0-1.34-1.2-2.56-2.56-2.59-1.38-.03-2.65,1.23-2.65,2.61,0,1.35,1.21,2.57,2.56,2.59,1.38.02,2.65-1.22,2.65-2.61Z"/>
      <path class="cls-3" d="m676.33,16.72v-3.34h3.38v3.34h-3.38Z"/>
      <path class="cls-3" d="m592.72,42.84v-3.33h3.38v3.33h-3.38Z"/>
      <path class="cls-3" d="m617.11,98.6v-3.36h3.38v3.36h-3.38Z"/>
      <path class="cls-3" d="m656.25,49.87c-1.3,0-2.61.01-3.91,0-1.46-.02-2.15-.68-2.16-2.12-.02-2.68-.02-5.36,0-8.04,0-1.42.63-2.06,2.06-2.08,2.72-.02,5.44-.02,8.15,0,1.38.01,2.01.61,2.03,1.98.03,2.75.03,5.51,0,8.26-.02,1.35-.68,1.98-2.03,2-1.38.02-2.75,0-4.13,0Zm-2.53-8.67c0,1.58-.02,3.05.02,4.52,0,.2.28.56.45.57,1.54.04,3.08.03,4.62.03v-5.11h-5.09Z"/>
      <path class="cls-3" d="m653.64,26.27c0-.8-.01-1.59,0-2.39.03-1.18.64-1.83,1.79-1.85,1.7-.02,3.4-.02,5.11,0,1.16.02,1.78.66,1.8,1.84.02,1.67.02,3.33,0,5-.02,1.22-.66,1.84-1.9,1.85-1.63.02-3.26.02-4.89,0-1.29-.01-1.89-.64-1.91-1.96-.01-.83,0-1.67,0-2.5Zm3.5.89h1.65v-1.57h-1.65v1.57Z"/>
      <path class="cls-3" d="m633.33,18.33c-.27.49-.43.99-.76,1.33-1.14,1.21-2.32,2.39-3.53,3.54-.88.84-1.79.81-2.68-.06-1.17-1.13-2.33-2.28-3.46-3.46-.86-.89-.87-1.8-.02-2.68,1.15-1.2,2.33-2.38,3.54-3.53.84-.81,1.76-.82,2.61-.02,1.23,1.17,2.44,2.38,3.61,3.62.3.32.44.79.7,1.27Zm-4.52.14c-.41-.49-.74-.88-1.02-1.23-.46.38-.83.7-1.06.89.35.53.64.97.9,1.35.52-.44.89-.76,1.19-1.01Z"/>
      <path class="cls-3" d="m601.39,28.02c0-.8-.01-1.59,0-2.39.03-1.18.64-1.84,1.79-1.85,1.7-.03,3.4-.02,5.11,0,1.16.02,1.79.66,1.8,1.84.02,1.67.02,3.33,0,5-.01,1.22-.66,1.84-1.9,1.86-1.63.02-3.26.02-4.89,0-1.29-.01-1.89-.64-1.91-1.95-.01-.83,0-1.67,0-2.5Zm3.5.91h1.65v-1.59h-1.65v1.59Z"/>
    </g>
    <g>
      <path class="cls-3" d="m172.26,12.19c3.06.75,5.2,2.81,7.32,4.98,4.3,4.39,8.69,8.69,13.01,13.06.66.67,1.33.97,2.29.96,16.18-.03,32.36,0,48.55-.04,4.32-.01,7.94,1.37,10.67,4.78,1.75,2.18,2.7,4.69,2.7,7.51,0,20.49.04,40.98,0,61.47-.01,7.14-5.51,12.59-12.66,12.62-10.2.04-20.4.01-30.61.01-.49,0-.99,0-1.55,0v7.98c4.6.34,8.17,2.35,10.53,6.3,1.12,1.86,1.7,3.89,1.68,6.08-.01,1.76-.93,2.73-2.69,2.73-4.43.01-8.86,0-13.3,0-10.2,0-20.4,0-30.61,0-2.25,0-3.13-.89-3.09-3.1.09-6.03,5.27-11.44,11.42-11.94.24-.02.49-.04.8-.06v-8.01c-.54,0-1.03,0-1.52,0-10.12,0-20.24.01-30.36,0-6.64-.01-11.65-4.21-12.85-10.71-.1-.57-.11-1.16-.11-1.75,0-7.23,0-14.47,0-21.7,0-1.86.92-2.93,2.49-2.94,1.58,0,2.52,1.07,2.52,2.91,0,3.51,0,7.02,0,10.54,0,.45,0,.91,0,1.44h104.88c0-.53,0-.98,0-1.43,0-16.47,0-32.95,0-49.42,0-5.12-3.08-8.21-8.16-8.21-14.47,0-28.93,0-43.4,0h-1.45c.37.43.58.7.83.95,5.38,5.38,10.78,10.74,16.12,16.17.76.78,1.54.46,2.32.43,5.29-.22,9.72,1.6,13.32,5.48,3.63,3.91,4.25,8.63,3.77,13.67-.18,1.87-.32,3.74-.4,5.62-.11,2.45.69,4.6,2.41,6.37.81.83,1.12,1.78.72,2.86-.42,1.14-1.35,1.55-2.54,1.68-5.3.57-10.58.67-15.82-.53-5.12-1.17-9.49-3.65-12.99-7.56-3.24-3.62-4.46-7.93-4.12-12.74.03-.46-.15-1.07-.47-1.39-10.03-10.08-20.09-20.12-30.13-30.19-.57-.57-1.13-.84-1.96-.84-5.06.04-10.12,0-15.18.02-4.42.01-7.68,3.21-7.71,7.66-.04,5.44-.02,10.87,0,16.31,0,1.12-.45,1.94-1.46,2.41-.96.45-1.97.38-2.66-.39-.48-.54-.85-1.38-.86-2.09-.07-5.64-.07-11.29-.03-16.93.05-6.15,5.34-11.69,11.47-11.95,3.59-.15,7.19-.07,10.78-.09.44,0,.88,0,1.32,0,.06-.11.13-.23.19-.34-.58-.52-1.16-1.04-1.73-1.57-6.14-5.79-3.01-15.33,4.48-16.87.11-.02.21-.13.31-.2,1.17,0,2.34,0,3.51,0Zm79.63,88.38h-105.1c.14,2.17.06,4.28.46,6.3.53,2.65,3.02,5.63,8.15,5.62,29.3-.05,58.6-.03,87.9-.03.63,0,1.25-.04,1.88-.11,3.18-.35,5.83-2.66,6.36-5.83.32-1.91.24-3.89.35-5.94Zm-52.98-56.88c-2.89-2.88-5.82-5.79-8.74-8.71-5.41-5.4-10.8-10.82-16.22-16.21-2.12-2.11-5.07-2.06-6.98.05-1.78,1.97-1.62,4.65.45,6.72,8.06,8.07,16.12,16.13,24.19,24.19.23.23.48.44.64.58,2.21-2.2,4.36-4.34,6.66-6.62Zm31.2,24.35c-.32.23-.47.3-.57.41-2.89,2.98-6.42,4.43-10.56,4.76-3.6.28-6.28,2.2-8.05,5.48,5.59,5.45,12.45,6.35,19.8,6.02-.27-.96-.56-1.82-.75-2.71-.74-3.45-.11-6.89.12-10.34.08-1.14.01-2.29.01-3.61Zm-11.53,67.54c-.75-2.76-3.51-4.91-6.69-4.94-8.35-.07-16.7-.07-25.05,0-3.17.03-5.96,2.21-6.67,4.94h38.41Zm8.91-72.96c-4.16-4.46-10.8-5.01-15.53-1.42-4.47,3.38-5.46,9.63-3.85,12.47,2.92-3.38,6.56-5.25,11.06-5.58,3.71-.27,6.5-2.12,8.32-5.47Zm-35.58,62.84h14.88v-7.85h-14.88v7.85Zm11.8-63.72c2.23-2.22,4.4-4.39,6.38-6.37-2.5-2.49-5.08-5.07-7.44-7.42-2.05,2.05-4.21,4.22-6.36,6.37,2.4,2.41,4.94,4.95,7.41,7.42Z"/>
      <path class="cls-3" d="m146.92,71.59c.03,1.44-1.05,2.55-2.48,2.57-1.44.01-2.53-1.07-2.53-2.51,0-1.38,1.04-2.46,2.41-2.5,1.44-.04,2.57,1.02,2.6,2.45Z"/>
      <path class="cls-3" d="m201.87,106.49c-.02,1.41-1.19,2.55-2.57,2.51-1.37-.05-2.49-1.26-2.45-2.65.05-1.36,1.14-2.4,2.52-2.4,1.45,0,2.51,1.09,2.49,2.54Z"/>
    </g>
  </g>
  <g id="Calque_2" data-name="Calque 2">
    <polygon class="cls-2" points="436.85 456.89 466.24 473.71 461.33 484.55 444.9 494.65 433.46 529.85 411.78 561.49 412.9 563.61 412.49 575.53 410.17 588.35 400.98 591.18 382.7 581.19 376.65 572.75 381.96 563.2 398.39 554.82 412.12 517.8 431.91 487.38 430.84 466.78 436.85 456.89"/>
    <polygon class="cls-2" points="437.99 7.52 466.24 23.69 461.52 34.11 445.73 43.82 434.73 77.65 413.9 108.06 414.97 110.1 414.58 121.55 412.35 133.88 403.52 136.6 385.95 126.99 380.13 118.88 385.24 109.7 401.02 101.65 414.22 66.07 433.25 36.83 432.21 17.03 437.99 7.52"/>
  </g>
</svg>